<svg width="720" height="180" viewBox="0 0 720 180" fill="none" xmlns="http://www.w3.org/2000/svg">
  <rect width="720" height="180" rx="40" fill="#0A0A0F"/>
  <circle cx="96" cy="90" r="48" fill="url(#paint0_linear_1_2)"/>
  <path d="M96 50C79.4315 50 66 63.4315 66 80V101C66 117.569 79.4315 131 96 131C112.569 131 126 117.569 126 101V80C126 63.4315 112.569 50 96 50ZM83 150C83 142.82 88.8203 137 96 137C103.18 137 109 142.82 109 150V156H83V150Z" fill="#F5F5FA"/>
  <path d="M88 76H104V105C104 110.523 99.5228 115 94 115H88V76Z" fill="#0A0A0F"/>
  <path d="M154 59H342V77H154V59ZM154 89H382V107H154V89ZM154 119H300V137H154V119Z" fill="#EEF2FF"/>
  <path d="M414.6 128V51.6H446.88C457.52 51.6 465.947 54.1867 472.16 59.36C478.373 64.5333 481.48 71.7067 481.48 80.88C481.48 90.0533 478.32 97.28 472 102.56C465.787 107.84 457.307 110.48 446.56 110.48H431.96V128H414.6ZM431.96 95.4H445.76C451.227 95.4 455.333 94.1733 458.08 91.72C460.933 89.2667 462.36 85.7333 462.36 81.12C462.36 76.5067 460.933 72.9733 458.08 70.52C455.333 68.0667 451.227 66.84 445.76 66.84H431.96V95.4ZM519.66 129.44C512.1 129.44 505.406 127.907 499.58 124.84C493.753 121.667 489.193 117.267 485.9 111.64C482.713 106.013 481.12 99.4533 481.12 91.96C481.12 84.4667 482.713 77.9067 485.9 72.28C489.193 66.5467 493.753 62.1467 499.58 59.08C505.513 55.9067 512.26 54.32 519.82 54.32C527.38 54.32 534.073 55.9067 539.9 59.08C545.726 62.1467 550.233 66.5467 553.42 72.28C556.713 77.9067 558.36 84.4667 558.36 91.96C558.36 99.4533 556.713 106.013 553.42 111.64C550.233 117.267 545.673 121.667 539.74 124.84C533.913 127.907 527.22 129.44 519.66 129.44ZM519.82 114.2C525.766 114.2 530.526 112.147 534.1 108.04C537.78 103.827 539.62 98.4667 539.62 91.96C539.62 85.3467 537.78 79.9867 534.1 75.88C530.526 71.6667 525.766 69.56 519.82 69.56C513.766 69.56 508.9 71.6667 505.22 75.88C501.646 79.9867 499.86 85.3467 499.86 91.96C499.86 98.4667 501.646 103.827 505.22 108.04C508.9 112.147 513.766 114.2 519.82 114.2ZM568.518 128V56H585.878V128H568.518ZM602.98 128V56H619.54V65.6C622.207 62.2667 625.5 59.6533 629.42 57.76C633.447 55.8667 637.82 54.92 642.54 54.92C650.953 54.92 657.727 57.4933 662.86 62.64C667.993 67.7867 670.56 75.0533 670.56 84.44V128H653.2V89.48C653.2 82.9733 651.64 78.1733 648.52 75.08C645.4 71.9867 641.487 70.44 636.78 70.44C631.42 70.44 627.06 72.1733 623.7 75.64C620.34 79 618.66 83.8 618.66 90.04V128H602.98Z" fill="url(#paint1_linear_1_2)"/>
  <defs>
    <linearGradient id="paint0_linear_1_2" x1="48" y1="42" x2="144" y2="138" gradientUnits="userSpaceOnUse">
      <stop stop-color="#835BFF"/>
      <stop offset="0.5" stop-color="#FF4FB8"/>
      <stop offset="1" stop-color="#5DE4FF"/>
    </linearGradient>
    <linearGradient id="paint1_linear_1_2" x1="414.6" y1="56" x2="651.61" y2="141.934" gradientUnits="userSpaceOnUse">
      <stop stop-color="#EEF2FF"/>
      <stop offset="0.55" stop-color="#DCCFFF"/>
      <stop offset="1" stop-color="#FFB2E3"/>
    </linearGradient>
  </defs>
</svg>
